<?xml version="1.0" encoding="UTF-8" standalone="no"?>
<!-- Created with Inkscape (http://www.inkscape.org/) -->

<svg
   xmlns:dc="http://purl.org/dc/elements/1.1/"
   xmlns:cc="http://creativecommons.org/ns#"
   xmlns:rdf="http://www.w3.org/1999/02/22-rdf-syntax-ns#"
   xmlns:svg="http://www.w3.org/2000/svg"
   xmlns="http://www.w3.org/2000/svg"
   xmlns:sodipodi="http://sodipodi.sourceforge.net/DTD/sodipodi-0.dtd"
   xmlns:inkscape="http://www.inkscape.org/namespaces/inkscape"
   width="1080"
   height="1080"
   viewBox="0 0 285.74999 285.75001"
   version="1.1"
   id="svg8"
   inkscape:version="0.92.3 (2405546, 2018-03-11)"
   sodipodi:docname="novo-icone.svg"
   inkscape:export-filename="C:\Users\vanes\OneDrive\Meus Sites\vanribeiro.dev\Artes\2019\novo-icone.png"
   inkscape:export-xdpi="91.022224"
   inkscape:export-ydpi="91.022224">
  <defs
     id="defs2" />
  <sodipodi:namedview
     id="base"
     pagecolor="#ffffff"
     bordercolor="#666666"
     borderopacity="1.0"
     inkscape:pageopacity="0.0"
     inkscape:pageshadow="2"
     inkscape:zoom="0.27262281"
     inkscape:cx="999.15588"
     inkscape:cy="383.27741"
     inkscape:document-units="px"
     inkscape:current-layer="layer1"
     showgrid="false"
     inkscape:window-width="1366"
     inkscape:window-height="705"
     inkscape:window-x="-8"
     inkscape:window-y="-8"
     inkscape:window-maximized="1"
     units="px" />
  <metadata
     id="metadata5">
    <rdf:RDF>
      <cc:Work
         rdf:about="">
        <dc:format>image/svg+xml</dc:format>
        <dc:type
           rdf:resource="http://purl.org/dc/dcmitype/StillImage" />
        <dc:title></dc:title>
      </cc:Work>
    </rdf:RDF>
  </metadata>
  <g
     inkscape:label="Camada 1"
     inkscape:groupmode="layer"
     id="layer1"
     transform="translate(0,-11.249983)">
    <path
       style="opacity:1;fill:#b56a7a;fill-opacity:1;stroke:none;stroke-width:0.26458326;stroke-linecap:round;stroke-linejoin:round;stroke-miterlimit:4;stroke-dasharray:none;stroke-dashoffset:0;stroke-opacity:1;paint-order:fill markers stroke"
       d="M 100.81972,24.441197 A 110.61325,63.105368 67.437955 0 0 56.800345,100.86314 110.61325,63.105368 67.437955 0 0 137.0819,230.43755 110.61325,63.105368 67.437955 0 0 199.92584,157.97232 110.61325,63.105368 67.437955 0 0 119.64429,28.398434 110.61325,63.105368 67.437955 0 0 100.81972,24.441197 Z M 252.06921,132.55164 a 1.281522,4.3022535 53.2105 0 0 -0.14091,0.002 1.281522,4.3022535 53.2105 0 0 -4.10765,2.14592 1.281522,4.3022535 53.2105 0 0 -2.0103,3.32655 1.281522,4.3022535 53.2105 0 0 0.16783,0.0496 c -3.52696,5.8678 -7.0538,21.79639 -10.58077,34.29095 l 10.83042,-34.27195 a 1.281522,4.3022535 53.2105 0 0 4.14934,-2.14276 1.281522,4.3022535 53.2105 0 0 2.01504,-3.32865 l -0.003,-0.002 a 1.281522,4.3022535 53.2105 0 0 -0.32035,-0.0696 z m -16.6718,39.81461 -2.02348,6.40241 c -0.43632,-0.1782 -0.96322,-0.25227 -1.5622,-0.23117 -3.47198,0.12231 -9.33066,3.4011 -13.54317,7.61364 -0.10382,0.10383 -0.20268,0.20697 -0.30294,0.31033 l 6.70166,11.1703 c 0.69142,-0.53631 1.40069,-1.16056 2.12691,-1.88678 5.39203,-5.39205 9.6127,-14.19034 7.28431,-16.51875 -0.0966,-0.0966 -0.20491,-0.18051 -0.32141,-0.25543 0.30112,-0.45073 0.60007,-0.89486 0.90514,-1.35797 l -0.94049,1.33579 c -0.0832,-0.0513 -0.16959,-0.0987 -0.26126,-0.14038 0.64569,-1.97789 1.29117,-4.15433 1.93693,-6.44199 z m -0.73518,5.24658 20.69183,-29.38899 a 1.281522,4.3022535 70.821216 0 0 4.60323,-0.78691 1.281522,4.3022535 70.821216 0 0 2.92755,-2.56287 l -0.002,-0.003 a 1.281522,4.3022535 70.821216 0 0 -0.41905,-0.20477 v 9.8e-4 a 1.281522,4.3022535 70.821216 0 0 -4.56418,0.80274 1.281522,4.3022535 70.821216 0 0 -2.9228,2.56234 1.281522,4.3022535 70.821216 0 0 0.14514,0.0982 c -5.13697,4.52574 -13.31772,18.64052 -20.45961,29.48242 z M 64.759675,156.85924 a 73.376661,58.326068 15.718558 0 0 -28.66858,25.90992 73.376661,58.326068 15.718558 0 0 41.96581,80.41297 73.376661,58.326068 15.718558 0 0 93.360265,-25.07182 73.376661,58.326068 15.718558 0 0 1.70629,-3.98521 110.61325,63.105368 67.437955 0 1 -40.18458,2.52592 110.61325,63.105368 67.437955 0 1 -68.179205,-79.79178 z m 151.322855,31.73442 c 0,0 -37.16689,49.31484 -56.44999,77.56827 -4.54581,6.66048 -14.20077,19.58563 -14.20077,19.58563 10.20792,-0.56338 22.32842,-1.48183 30.97601,-7.67699 27.80722,-19.9211 47.13006,-77.05051 47.13006,-77.05051 z"
       id="ellipse839"
       inkscape:connector-curvature="0" />
  </g>
</svg>
