<?xml version="1.0" encoding="UTF-8" standalone="no"?>
<!-- Created with Inkscape (http://www.inkscape.org/) -->

<svg
   xmlns:dc="http://purl.org/dc/elements/1.1/"
   xmlns:cc="http://creativecommons.org/ns#"
   xmlns:rdf="http://www.w3.org/1999/02/22-rdf-syntax-ns#"
   xmlns:svg="http://www.w3.org/2000/svg"
   xmlns="http://www.w3.org/2000/svg"
   xmlns:sodipodi="http://sodipodi.sourceforge.net/DTD/sodipodi-0.dtd"
   xmlns:inkscape="http://www.inkscape.org/namespaces/inkscape"
   width="1024"
   height="1024"
   viewBox="0 0 270.93333 270.93334"
   version="1.1"
   id="svg8"
   inkscape:version="0.92.3 (2405546, 2018-03-11)"
   sodipodi:docname="logo.svg.2019_12_18_03_28_41.0.svg"
   inkscape:export-filename="C:\Users\vanes\OneDrive\Desafios de Programação\2019\100 Dias de Código\Projetos e Códigos\00 - Revisão HTML CSS e Site Portfolio\Estudando\07 - Consumindo APIs\Instagram\img\icone-app-instagram-mybestpictures.png"
   inkscape:export-xdpi="96.000008"
   inkscape:export-ydpi="96.000008">
  <defs
     id="defs2" />
  <sodipodi:namedview
     id="base"
     pagecolor="#ffffff"
     bordercolor="#666666"
     borderopacity="1.0"
     inkscape:pageopacity="0.0"
     inkscape:pageshadow="2"
     inkscape:zoom="0.27262281"
     inkscape:cx="376.99493"
     inkscape:cy="396.78624"
     inkscape:document-units="px"
     inkscape:current-layer="layer1"
     showgrid="false"
     units="px"
     inkscape:window-width="1366"
     inkscape:window-height="705"
     inkscape:window-x="-8"
     inkscape:window-y="-8"
     inkscape:window-maximized="1" />
  <metadata
     id="metadata5">
    <rdf:RDF>
      <cc:Work
         rdf:about="">
        <dc:format>image/svg+xml</dc:format>
        <dc:type
           rdf:resource="http://purl.org/dc/dcmitype/StillImage" />
        <dc:title />
      </cc:Work>
    </rdf:RDF>
  </metadata>
  <g
     inkscape:label="Camada 1"
     inkscape:groupmode="layer"
     id="layer1"
     transform="translate(0,-26.06665)">
    <rect
       style="opacity:1;fill:#ebebeb;fill-opacity:1;stroke:none;stroke-width:0.26458332;stroke-linecap:round;stroke-linejoin:round;stroke-miterlimit:4;stroke-dasharray:none;stroke-dashoffset:0;stroke-opacity:1;paint-order:fill markers stroke"
       id="rect826"
       width="270.93332"
       height="270.93332"
       x="-7.6165203e-017"
       y="26.066666" />
    <path
       style="opacity:1;fill:#b56a7a;fill-opacity:1;stroke:none;stroke-width:0.26458332;stroke-linecap:round;stroke-linejoin:round;stroke-miterlimit:4;stroke-dasharray:none;stroke-dashoffset:0;stroke-opacity:1;paint-order:fill markers stroke"
       d="M 200.6761,49.756044 A 76.539338,121.34287 30 0 0 135.50385,80.927786 121.34299,76.539422 60.000005 0 0 42.114716,56.481731 121.34299,76.539422 60.000005 0 0 36.501621,199.83732 a 121.34299,76.539422 60.000005 0 0 73.258579,67.97001 76.539338,121.34287 30 0 0 27.07586,5.45807 121.34299,76.539422 60.000005 0 0 23.26318,-5.0121 76.539338,121.34287 30 0 0 74.33242,-68.41598 76.539338,121.34287 30 0 0 -5.6131,-143.355589 76.539338,121.34287 30 0 0 -28.14246,-6.725687 z m -30.16922,66.394396 h 19.26239 v 16.22692 H 170.50688 Z M 81.252377,137.30006 H 189.6809 c 7.6037,0 13.72474,6.12155 13.72474,13.72526 v 40.489 c 0,7.6037 -6.12104,13.72474 -13.72474,13.72474 H 81.252377 c -7.603701,0 -13.724741,-6.12104 -13.724741,-13.72474 v -40.489 c 0,-7.60371 6.12104,-13.72526 13.724741,-13.72526 z m 96.418923,5.25859 a 6.4078344,6.4078344 0 0 0 -6.40788,6.40788 6.4078344,6.4078344 0 0 0 6.40788,6.40787 6.4078344,6.4078344 0 0 0 6.40787,-6.40787 6.4078344,6.4078344 0 0 0 -6.40787,-6.40788 z m -42.20466,6.04304 a 20.609004,20.609004 0 0 0 -20.60908,20.60908 20.609004,20.609004 0 0 0 20.60908,20.60908 20.609004,20.609004 0 0 0 20.60908,-20.60908 20.609004,20.609004 0 0 0 -20.60908,-20.60908 z"
       id="path820"
       inkscape:connector-curvature="0" />
  </g>
</svg>
